HIERARCHY
ROOT reference
{
  OFFSET 0 0 0
  CHANNELS 6 Xposition Yposition Zposition Zrotation Xrotation Yrotation
  JOINT Hips
  {
    OFFSET 350.331 86.7696 215.823
    CHANNELS 3 Zrotation Xrotation Yrotation
    JOINT RightUpLeg
    {
      OFFSET -9.29271 -1.56052 -0.0234997
      CHANNELS 3 Zrotation Xrotation Yrotation
      JOINT RightLeg
      {
        OFFSET -0.0199852 -41.8973 0.0465042
        CHANNELS 3 Zrotation Xrotation Yrotation
        JOINT RightFoot
        {
          OFFSET -0.344404 -43.5008 0.46033
          CHANNELS 3 Zrotation Xrotation Yrotation
          End Site
          {
            OFFSET 0 -7.69 17.5
          }
        }
      }
    }
    JOINT LeftUpLeg
    {
      OFFSET 9.27671 -1.61046 0.00923455
      CHANNELS 3 Zrotation Xrotation Yrotation
      JOINT LeftLeg
      {
        OFFSET 0.0572944 -41.8832 0.025786
        CHANNELS 3 Zrotation Xrotation Yrotation
        JOINT LeftFoot
        {
          OFFSET 0.630082 -40.4663 0.064708
          CHANNELS 3 Zrotation Xrotation Yrotation
          End Site
          {
            OFFSET 0 -7.69 17.5
          }
        }
      }
    }
    JOINT Spine
    {
      OFFSET 0.0336257 14.3009 0.0467062
      CHANNELS 3 Zrotation Xrotation Yrotation
      JOINT Spine1
      {
        OFFSET 0.0295985 9.72711 0.0239471
        CHANNELS 3 Zrotation Xrotation Yrotation
        JOINT Spine2
        {
          OFFSET 0.0515174 10.1206 0.00128176
          CHANNELS 3 Zrotation Xrotation Yrotation
          JOINT Spine3
          {
            OFFSET 0.0546141 9.71668 0.0122483
            CHANNELS 3 Zrotation Xrotation Yrotation
            JOINT Neck
            {
              OFFSET 0.0872189 10.3831 0.0511468
              CHANNELS 3 Zrotation Xrotation Yrotation
              JOINT Head
              {
                OFFSET 0.0544 9.47189 0.0313815
                CHANNELS 3 Zrotation Xrotation Yrotation
                End Site
                {
                  OFFSET 0 15.95 0
                }
              }
            }
            JOINT RightShoulder
            {
              OFFSET -3.15364 6.93551 0.0260198
              CHANNELS 3 Zrotation Xrotation Yrotation
              JOINT RightArm
              {
                OFFSET -12.7567 0.0626665 0.0664987
                CHANNELS 3 Zrotation Xrotation Yrotation
                JOINT RightForeArm
                {
                  OFFSET -26.5087 -0.073346 0.274032
                  CHANNELS 3 Zrotation Xrotation Yrotation
                  JOINT RightHand
                  {
                    OFFSET -26.0005 -0.196673 0.105827
                    CHANNELS 3 Zrotation Xrotation Yrotation
                    JOINT RightHandThumb1
                    {
                      OFFSET -2.48905 0.190105 3.12053
                      CHANNELS 3 Zrotation Xrotation Yrotation
                      JOINT RightHandThumb2
                      {
                        OFFSET -3.68274 0 0
                        CHANNELS 3 Zrotation Xrotation Yrotation
                        JOINT RightHandThumb3
                        {
                          OFFSET -2.55832 0 0
                          CHANNELS 3 Zrotation Xrotation Yrotation
                          End Site
                          {
                            OFFSET -2.194 0 0
                          }
                        }
                      }
                    }
                    JOINT RightInHandIndex
                    {
                      OFFSET -3.22368 0.508421 1.97842
                      CHANNELS 3 Zrotation Xrotation Yrotation
                      JOINT RightHandIndex1
                      {
                        OFFSET -5.21684 -0.091368 0.999158
                        CHANNELS 3 Zrotation Xrotation Yrotation
                        JOINT RightHandIndex2
                        {
                          OFFSET -3.61937 0 0
                          CHANNELS 3 Zrotation Xrotation Yrotation
                          JOINT RightHandIndex3
                          {
                            OFFSET -2.0521 0 0
                            CHANNELS 3 Zrotation Xrotation Yrotation
                            End Site
                            {
                              OFFSET -1.805 0 0
                            }
                          }
                        }
                      }
                    }
                    JOINT RightInHandMiddle
                    {
                      OFFSET -3.38211 0.517263 0.756737
                      CHANNELS 3 Zrotation Xrotation Yrotation
                      JOINT RightHandMiddle1
                      {
                        OFFSET -5.17411 -0.084 0.313895
                        CHANNELS 3 Zrotation Xrotation Yrotation
                        JOINT RightHandMiddle2
                        {
                          OFFSET -3.94947 0 0
                          CHANNELS 3 Zrotation Xrotation Yrotation
                          JOINT RightHandMiddle3
                          {
                            OFFSET -2.47579 0 0
                            CHANNELS 3 Zrotation Xrotation Yrotation
                            End Site
                            {
                              OFFSET -1.975 0 0
                            }
                          }
                        }
                      }
                    }
                    JOINT RightInHandRing
                    {
                      OFFSET -3.36516 0.537895 -0.128947
                      CHANNELS 3 Zrotation Xrotation Yrotation
                      JOINT RightHandRing1
                      {
                        OFFSET -4.63474 -0.022105 -0.478947
                        CHANNELS 3 Zrotation Xrotation Yrotation
                        JOINT RightHandRing2
                        {
                          OFFSET -3.44238 0 0
                          CHANNELS 3 Zrotation Xrotation Yrotation
                          JOINT RightHandRing3
                          {
                            OFFSET -2.3881 0 0
                            CHANNELS 3 Zrotation Xrotation Yrotation
                            End Site
                            {
                              OFFSET -1.857 0 0
                            }
                          }
                        }
                      }
                    }
                    JOINT RightInHandPinky
                    {
                      OFFSET -3.16105 0.469368 -1.20179
                      CHANNELS 3 Zrotation Xrotation Yrotation
                      JOINT RightHandPinky1
                      {
                        OFFSET -4.14105 -0.022105 -1.09053
                        CHANNELS 3 Zrotation Xrotation Yrotation
                        JOINT RightHandPinky2
                        {
                          OFFSET -2.75653 0 0
                          CHANNELS 3 Zrotation Xrotation Yrotation
                          JOINT RightHandPinky3
                          {
                            OFFSET -1.74189 0 0
                            CHANNELS 3 Zrotation Xrotation Yrotation
                            End Site
                            {
                              OFFSET -1.645 0 0
                            }
                          }
                        }
                      }
                    }
                  }
                }
              }
            }
            JOINT LeftShoulder
            {
              OFFSET 3.27252 6.91581 -0.0198585
              CHANNELS 3 Zrotation Xrotation Yrotation
              JOINT LeftArm
              {
                OFFSET 12.8319 -0.0466028 -0.0574599
                CHANNELS 3 Zrotation Xrotation Yrotation
                JOINT LeftForeArm
                {
                  OFFSET 26.4942 -0.039105 -0.0936
                  CHANNELS 3 Zrotation Xrotation Yrotation
                  JOINT LeftHand
                  {
                    OFFSET 26.0008 0.022674 -0.016655
                    CHANNELS 3 Zrotation Xrotation Yrotation
                    JOINT LeftHandThumb1
                    {
                      OFFSET 2.48905 0.190105 3.12053
                      CHANNELS 3 Zrotation Xrotation Yrotation
                      JOINT LeftHandThumb2
                      {
                        OFFSET 3.68274 0 0
                        CHANNELS 3 Zrotation Xrotation Yrotation
                        JOINT LeftHandThumb3
                        {
                          OFFSET 2.55832 0 0
                          CHANNELS 3 Zrotation Xrotation Yrotation
                          End Site
                          {
                            OFFSET 2.194 0 0
                          }
                        }
                      }
                    }
                    JOINT LeftInHandIndex
                    {
                      OFFSET 3.22368 0.508421 1.97842
                      CHANNELS 3 Zrotation Xrotation Yrotation
                      JOINT LeftHandIndex1
                      {
                        OFFSET 5.21684 -0.091368 0.999158
                        CHANNELS 3 Zrotation Xrotation Yrotation
                        JOINT LeftHandIndex2
                        {
                          OFFSET 3.61937 0 0
                          CHANNELS 3 Zrotation Xrotation Yrotation
                          JOINT LeftHandIndex3
                          {
                            OFFSET 2.0521 0 0
                            CHANNELS 3 Zrotation Xrotation Yrotation
                            End Site
                            {
                              OFFSET 1.805 0 0
                            }
                          }
                        }
                      }
                    }
                    JOINT LeftInHandMiddle
                    {
                      OFFSET 3.38211 0.517263 0.756737
                      CHANNELS 3 Zrotation Xrotation Yrotation
                      JOINT LeftHandMiddle1
                      {
                        OFFSET 5.17411 -0.084 0.313895
                        CHANNELS 3 Zrotation Xrotation Yrotation
                        JOINT LeftHandMiddle2
                        {
                          OFFSET 3.94947 0 0
                          CHANNELS 3 Zrotation Xrotation Yrotation
                          JOINT LeftHandMiddle3
                          {
                            OFFSET 2.47579 0 0
                            CHANNELS 3 Zrotation Xrotation Yrotation
                            End Site
                            {
                              OFFSET 1.975 0 0
                            }
                          }
                        }
                      }
                    }
                    JOINT LeftInHandRing
                    {
                      OFFSET 3.36516 0.537895 -0.128947
                      CHANNELS 3 Zrotation Xrotation Yrotation
                      JOINT LeftHandRing1
                      {
                        OFFSET 4.63474 -0.022105 -0.478947
                        CHANNELS 3 Zrotation Xrotation Yrotation
                        JOINT LeftHandRing2
                        {
                          OFFSET 3.44238 0 0
                          CHANNELS 3 Zrotation Xrotation Yrotation
                          JOINT LeftHandRing3
                          {
                            OFFSET 2.3881 0 0
                            CHANNELS 3 Zrotation Xrotation Yrotation
                            End Site
                            {
                              OFFSET 1.857 0 0
                            }
                          }
                        }
                      }
                    }
                    JOINT LeftInHandPinky
                    {
                      OFFSET 3.16105 0.469368 -1.20179
                      CHANNELS 3 Zrotation Xrotation Yrotation
                      JOINT LeftHandPinky1
                      {
                        OFFSET 4.14105 -0.022105 -1.09053
                        CHANNELS 3 Zrotation Xrotation Yrotation
                        JOINT LeftHandPinky2
                        {
                          OFFSET 2.75653 0 0
                          CHANNELS 3 Zrotation Xrotation Yrotation
                          JOINT LeftHandPinky3
                          {
                            OFFSET 1.74189 0 0
                            CHANNELS 3 Zrotation Xrotation Yrotation
                            End Site
                            {
                              OFFSET 1.645 0 0
                            }
                          }
                        }
                      }
                    }
                  }
                }
              }
            }
          }
        }
      }
    }
  }
}
MOTION
Frames: 2
Frame Time: 0.00833333
9.000000000000000000e+02 0.000000000000000000e+00 0.000000000000000000e+00 0.000000000000000000e+00 0.000000000000000000e+00 0.000000000000000000e+00 -1.757179496108608019e+00 8.149650693484087327e-01 4.603984187294987862e+01 -2.709146578037856656e+01 9.647925860101807416e+00 -2.458944512288943685e+01 1.567835660774746787e+00 2.061470250624942491e+00 -1.000041534177642788e+01 9.513891835382072282e-01 -4.784609351394053967e+00 -1.327687606633719852e+01 -2.022979700341855747e+01 -1.043066582505689865e+01 -1.853060941338692302e+01 1.327918594689095855e+01 -7.747456706962400297e+00 -1.284296631501305797e+01 -6.169879797298210455e+00 9.231741828018416030e+00 -1.917108654039679649e+01 -2.787285480152340789e+00 5.104288213517630624e+00 2.140135102060065719e+01 -5.603283442643294254e-01 1.495712621491686711e+00 5.391084592127982411e+00 -9.233117435574365039e-01 2.451925569139764782e+00 8.027604135917322026e+00 4.654570815406117723e-01 -1.899272240347454066e-01 -2.269276474715753888e+00 1.528082569700021098e+00 -5.742332543186736693e-01 -2.751980524900092107e+01 8.824611127427040458e+00 -3.015243226765548901e+00 -2.827745923107493198e+01 -6.409282504543199366e+00 -1.187391590753692405e+01 1.557549363923011221e+01 2.881632225300394534e-01 3.645730911873397417e+01 3.008548525682972041e+01 -1.763046877599247964e+01 -5.037083546456583960e+00 -5.018900820329508861e+01 5.713197330301078125e+00 1.047762359576609015e+01 -9.689566801664005524e+00 0.000000000000000000e+00 0.000000000000000000e+00 0.000000000000000000e+00 -5.625573122981127302e-15 2.016464910422171078e-15 0.000000000000000000e+00 -6.183251531378867492e-16 -2.478838695514780850e-16 0.000000000000000000e+00 -8.605798563825601861e-16 -1.712200644029649788e-15 8.751905124739439583e-16 0.000000000000000000e+00 0.000000000000000000e+00 0.000000000000000000e+00 0.000000000000000000e+00 -1.207483417739425424e-15 -6.949323108961679303e-15 0.000000000000000000e+00 -3.021026832390417047e-16 1.002641126113485108e-15 -8.605798563825601861e-16 -1.712200644029649788e-15 8.751905124739439583e-16 0.000000000000000000e+00 1.037305647187101953e-15 7.251141495525986274e-16 0.000000000000000000e+00 1.687491213398955430e-15 -1.937977364965273622e-15 0.000000000000000000e+00 1.266542087819807451e-18 2.106935170002260834e-15 -8.605798563825601861e-16 -1.712200644029649788e-15 8.751905124739439583e-16 0.000000000000000000e+00 0.000000000000000000e+00 0.000000000000000000e+00 0.000000000000000000e+00 -1.619225139261308846e-15 3.991830472607810402e-16 0.000000000000000000e+00 -9.241026918921594765e-16 -5.889502249072641686e-16 -8.605798563825601861e-16 -1.712200644029649788e-15 8.751905124739439583e-16 0.000000000000000000e+00 0.000000000000000000e+00 0.000000000000000000e+00 0.000000000000000000e+00 -4.841282105135342170e-16 -6.250495019454750593e-15 0.000000000000000000e+00 8.677429242153518499e-16 -2.463836749820152543e-16 4.412287185481450491e-02 9.993512802581074883e-01 1.569763478437984894e+01 -2.739098544910512700e+01 -6.339519788770358488e+00 3.135333361348734016e+01 -2.781769964917595317e+01 -2.515635706458228427e+01 -3.324144497933151854e+01 7.011717243530831922e+00 -5.504622427940428775e-01 -7.231634805765395635e-01 0.000000000000000000e+00 0.000000000000000000e+00 0.000000000000000000e+00 1.476712227349486800e-15 -5.798108018917820318e-16 0.000000000000000000e+00 -4.889418683347095722e-16 2.666763542522163562e-16 0.000000000000000000e+00 2.768752662403067621e-16 -2.497722401140864692e-15 6.951617587766408369e-16 0.000000000000000000e+00 0.000000000000000000e+00 0.000000000000000000e+00 0.000000000000000000e+00 2.649700542367546255e-15 9.328040000702638025e-16 0.000000000000000000e+00 -1.365404231434029897e-15 4.066291947840883361e-16 2.768752662403067621e-16 -2.497722401140864692e-15 6.951617587766408369e-16 0.000000000000000000e+00 -1.292178265124721219e-15 1.896473687679532472e-15 0.000000000000000000e+00 5.500338286273863504e-16 2.381725994480683086e-15 0.000000000000000000e+00 -9.491865084780514294e-16 -1.268429641585436722e-15 2.768752662403067621e-16 -2.497722401140864692e-15 6.951617587766408369e-16 0.000000000000000000e+00 0.000000000000000000e+00 0.000000000000000000e+00 0.000000000000000000e+00 2.464259445509320385e-16 1.191467982518333897e-15 0.000000000000000000e+00 2.212776154335301401e-15 3.740691421072145776e-15 2.768752662403067621e-16 -2.497722401140864692e-15 6.951617587766408369e-16 0.000000000000000000e+00 0.000000000000000000e+00 0.000000000000000000e+00 0.000000000000000000e+00 6.246429464983584508e-16 -3.394248695385937696e-15 0.000000000000000000e+00 1.907415928208666966e-15 3.470112018392188992e-15
9.000000000000000000e+02 0.000000000000000000e+00 0.000000000000000000e+00 0.000000000000000000e+00 0.000000000000000000e+00 0.000000000000000000e+00 -1.737413254020612197e+00 7.148197685440893512e-01 4.579304968429659795e+01 -2.681913124138269211e+01 9.682233456410029859e+00 -2.432626416342400688e+01 1.521008592429834216e+00 1.976756688770555215e+00 -9.932417633037932347e+00 8.913577045226639406e-01 -4.678014949105062215e+00 -1.314750627136623073e+01 -2.015135734139908763e+01 -1.019058570069649505e+01 -1.840577437189300980e+01 1.311293873486914485e+01 -7.727283157966647664e+00 -1.268613283052708951e+01 -6.161405013599933866e+00 9.124993017900820291e+00 -1.911650460408149144e+01 -2.812648794896063009e+00 5.011213645141287643e+00 2.148065570058733798e+01 -5.680381298526379075e-01 1.472374959842582820e+00 5.412273568592810946e+00 -9.360775862219783416e-01 2.413858948059315779e+00 8.052481358314429016e+00 4.591258024605215926e-01 -1.938647730658261126e-01 -2.254965018689458756e+00 1.522212075655871466e+00 -6.110652117005165307e-01 -2.757090454869172547e+01 8.699966971715868524e+00 -2.973411426166484350e+00 -2.798525655852633065e+01 -6.446073568829734590e+00 -1.180720351021151338e+01 1.553603033756430030e+01 7.162269202548832148e-02 3.622339424101637917e+01 3.013636050144413758e+01 -1.765494989748442123e+01 -4.828825496949193052e+00 -4.960922120441363603e+01 5.736347638800348925e+00 1.060120469556022726e+01 -9.663118376993631742e+00 0.000000000000000000e+00 0.000000000000000000e+00 0.000000000000000000e+00 -5.559114444536834233e-15 1.949106668110660423e-15 0.000000000000000000e+00 -6.071711821653580525e-16 -3.049023843612454696e-16 0.000000000000000000e+00 -8.483394281569183970e-16 -1.665786480775214439e-15 8.878741076188285035e-16 0.000000000000000000e+00 0.000000000000000000e+00 0.000000000000000000e+00 0.000000000000000000e+00 -1.195425009454457613e-15 -6.831579685110006383e-15 0.000000000000000000e+00 -2.873448326789661803e-16 1.069600776688195000e-15 -8.483394281569183970e-16 -1.665786480775214439e-15 8.878741076188285035e-16 0.000000000000000000e+00 1.047632697683468470e-15 7.135783593118591299e-16 0.000000000000000000e+00 1.712568752915761613e-15 -1.898308703653840136e-15 0.000000000000000000e+00 -5.070633555744174495e-18 2.174175690186738115e-15 -8.483394281569183970e-16 -1.665786480775214439e-15 8.878741076188285035e-16 0.000000000000000000e+00 0.000000000000000000e+00 0.000000000000000000e+00 0.000000000000000000e+00 -1.610354286614407830e-15 3.527811628805475096e-16 0.000000000000000000e+00 -8.792279369132294492e-16 -5.266456562628990410e-16 -8.483394281569183970e-16 -1.665786480775214439e-15 8.878741076188285035e-16 0.000000000000000000e+00 0.000000000000000000e+00 0.000000000000000000e+00 0.000000000000000000e+00 -4.790842399682879026e-16 -6.172971761309208034e-15 0.000000000000000000e+00 8.565671943700844554e-16 -2.626716091128857221e-16 -1.095682814799556204e-01 1.004921992921731011e+00 1.557603377461656358e+01 -2.740311796571990044e+01 -6.466789508052768198e+00 3.125048111418325902e+01 -2.744638504620279562e+01 -2.497726514717248136e+01 -3.358515218813743530e+01 6.992862821290937170e+00 -4.784059758861229916e-01 -8.352079736039681457e-01 0.000000000000000000e+00 0.000000000000000000e+00 0.000000000000000000e+00 1.488819290833759645e-15 -5.476936037031304932e-16 0.000000000000000000e+00 -4.590849553637683684e-16 3.157971493728751484e-16 0.000000000000000000e+00 2.965602314158112542e-16 -2.529404434978265336e-15 6.979009859368527697e-16 0.000000000000000000e+00 0.000000000000000000e+00 0.000000000000000000e+00 0.000000000000000000e+00 2.648108933438203858e-15 9.317311457970992230e-16 0.000000000000000000e+00 -1.369205822751580936e-15 3.599602034847184021e-16 2.965602314158112542e-16 -2.529404434978265336e-15 6.979009859368527697e-16 0.000000000000000000e+00 -1.322609170072292555e-15 1.912209452204798847e-15 0.000000000000000000e+00 5.797938926134630370e-16 2.302515685644371740e-15 0.000000000000000000e+00 -9.427354791349493668e-16 -1.296661204568175796e-15 2.965602314158112542e-16 -2.529404434978265336e-15 6.979009859368527697e-16 0.000000000000000000e+00 0.000000000000000000e+00 0.000000000000000000e+00 0.000000000000000000e+00 2.751457800465070133e-16 1.228174999396098661e-15 0.000000000000000000e+00 2.214335629685420418e-15 3.649853531706822931e-15 2.965602314158112542e-16 -2.529404434978265336e-15 6.979009859368527697e-16 0.000000000000000000e+00 0.000000000000000000e+00 0.000000000000000000e+00 0.000000000000000000e+00 6.204337416677847022e-16 -3.395380339885613889e-15 0.000000000000000000e+00 1.894970009447397910e-15 3.432260892089695813e-15
